<svg id="Layer_1" enable-background="new 0 0 511.926 511.926" height="512" viewBox="0 0 511.926 511.926" width="512" xmlns="http://www.w3.org/2000/svg"><g><path d="m509.913 321.006-.29-.501c-23.985-41.533-76.546-56.31-119.663-33.646l-72.365 38.042c-2.388-14.573-11.305-27.146-25.318-35.236l-61.268-35.373c-8.698-6.113-18.882-9.341-29.51-9.341h-85.478v-16.175c0-8.284-6.716-15-15-15h-86.021c-8.284 0-15 6.716-15 15v208.872c0 8.284 6.716 15 15 15h86.021c8.284 0 15-6.716 15-15v-29.898h19.016l111.682 64.61c8.365 4.84 17.075 7.263 25.531 7.262 8.109 0 15.985-2.229 23.089-6.694l209.566-131.718c6.83-4.294 9.042-13.219 5.008-20.204zm-423.892 101.642h-56.021v-178.872h56.021zm193.354 24.879c-6.209 3.903-13.016 1.537-17.633-1.134l-115.167-66.627c-2.283-1.321-4.874-2.017-7.511-2.017h-23.042v-102.798h85.478c4.529 0 8.872 1.417 12.559 4.099.426.311 63.219 36.596 63.219 36.596 7.291 4.209 10.987 10.007 10.987 17.231 0 8.206-4.963 16.804-12.07 20.906-6.257 3.612-13.126 3.31-20.417-.899l-57.026-32.924c-2.28-1.316-4.867-2.01-7.5-2.01h-25.252c-8.284 0-15 6.716-15 15s6.716 15 15 15h21.233l53.544 30.914c8.532 4.926 17.56 7.395 26.436 7.395 8.305 0 16.476-2.161 23.981-6.494 6.967-4.023 12.884-9.649 17.397-16.237l95.329-50.114c24.499-12.877 53.488-7.786 71.392 10.962z"/><path d="m326.806 249.101c20.73 0 52.715-23.507 75.218-46.803 18.277-18.921 48.938-56.752 48.938-97.523 0-39.961-32.51-72.471-72.47-72.471-19.915 0-38.318 7.929-51.686 21.581-13.368-13.652-31.771-21.581-51.686-21.581-39.96 0-72.47 32.51-72.47 72.471 0 37.548 30.567 75.735 48.787 95.157 21.279 22.682 53.786 49.169 75.369 49.169zm-51.686-186.797c16.379 0 31.018 9.154 38.203 23.892 2.514 5.156 7.747 8.427 13.483 8.427s10.969-3.271 13.483-8.427c7.185-14.737 21.824-23.892 38.203-23.892 23.418 0 42.47 19.052 42.47 42.471 0 22.064-14.755 50.001-40.482 76.646-24.195 25.059-47.452 37.664-53.651 37.68-6.104-.211-29.346-13.806-53.933-40.145-25.2-26.995-40.245-54.727-40.245-74.182-.001-23.418 19.051-42.47 42.469-42.47z"/></g></svg>