<?xml version="1.0" encoding="utf-8"?>
<!-- Generator: Adobe Illustrator 16.0.0, SVG Export Plug-In . SVG Version: 6.00 Build 0)  -->
<!DOCTYPE svg PUBLIC "-//W3C//DTD SVG 1.1//EN" "http://www.w3.org/Graphics/SVG/1.1/DTD/svg11.dtd">
<svg version="1.1" id="Capa_1" xmlns="http://www.w3.org/2000/svg" xmlns:xlink="http://www.w3.org/1999/xlink" x="0px" y="0px"
	 width="595.281px" height="841.89px" viewBox="0 0 595.281 841.89" enable-background="new 0 0 595.281 841.89"
	 xml:space="preserve">
<g>
	<g id="XMLID_1_">
		<g>
			<path fill="#F9F19A" d="M390.791,404.594c-23.011,40.47-54.881,73.2-93.15,93.22c-38.27-20.02-70.14-52.75-93.15-93.22h0.36
				c0.13,0.34,0.26,0.67,0.4,1h184.78c0.141-0.33,0.271-0.66,0.4-1H390.791z"/>
			<path d="M297.64,497.814c38.27-20.02,70.14-52.75,93.15-93.22h-0.36c9.979-24.94,14.17-52.44,11.31-80.54l-16.659-163.71H210.2
				l-16.66,163.71c-2.86,28.1,1.33,55.6,11.31,80.54h-0.36C227.5,445.064,259.37,477.794,297.64,497.814z M436.49,320.524
				c9.051,88.93-40.46,173.01-121.39,208.75v136.84l36.34,22.221c6.67,4.08,9.82,12.1,7.7,19.63s-8.99,12.729-16.81,12.729h-89.38
				c-7.82,0-14.69-5.199-16.81-12.729s1.03-15.55,7.7-19.63l36.34-22.221v-136.84c-80.93-35.739-130.44-119.82-121.39-208.75
				l18.26-179.41c0.91-8.92,8.41-15.7,17.37-15.7h206.44c8.96,0,16.471,6.78,17.37,15.7L436.49,320.524z"/>
			<path fill="#EC693B" d="M401.74,324.054c2.86,28.1-1.33,55.6-11.31,80.54H204.85c-9.98-24.94-14.17-52.44-11.31-80.54
				l16.66-163.71h174.88L401.74,324.054z"/>
			<path fill="#EC693B" d="M204.85,404.594h185.58c-0.13,0.34-0.26,0.67-0.4,1H205.25C205.11,405.264,204.98,404.934,204.85,404.594
				z"/>
		</g>
		<g>
		</g>
	</g>
</g>
</svg>
